<?xml version="1.0" encoding="UTF-8" standalone="no"?>
<svg
   xmlns:dc="http://purl.org/dc/elements/1.1/"
   xmlns:cc="http://creativecommons.org/ns#"
   xmlns:rdf="http://www.w3.org/1999/02/22-rdf-syntax-ns#"
   xmlns:svg="http://www.w3.org/2000/svg"
   xmlns="http://www.w3.org/2000/svg"
   viewBox="0 0 960 960"
   height="960"
   width="960"
   xml:space="preserve"
   version="1.1"
   id="svg2"><metadata
     id="metadata8"><rdf:RDF><cc:Work
         rdf:about=""><dc:format>image/svg+xml</dc:format><dc:type
           rdf:resource="http://purl.org/dc/dcmitype/StillImage" /></cc:Work></rdf:RDF></metadata><defs
     id="defs6"><clipPath
       id="clipPath18"
       clipPathUnits="userSpaceOnUse"><path
         id="path20"
         d="M 0,768 768,768 768,0 0,0 0,768 Z" /></clipPath></defs><g
     transform="matrix(1.25,0,0,-1.25,0,960)"
     id="g10"><path
       id="path12"
       style="fill:#e6e7e8;fill-opacity:1;fill-rule:nonzero;stroke:none"
       d="M 0,0 768,0 768,768 0,768 0,0 Z" /><g
       id="g14"><g
         clip-path="url(#clipPath18)"
         id="g16"><g
           transform="translate(551.426,639.9885)"
           id="g22"><path
             id="path24"
             style="fill:#3388ff;fill-opacity:1;fill-rule:evenodd;stroke:none"
             d="m 0,0 -333.511,0.01 c -49.437,-0.117 -89.821,-39.987 -89.913,-89.429 l -0.002,-332.471 c 0.02,-49.576 40.552,-90.097 90.133,-90.097 l 332.267,0 c 49.593,0 89.6,40.541 89.6,90.133 l 0,332.267 C 88.574,-40.337 49.116,-0.548 0,0" /></g><g
           transform="translate(432.9905,524.005)"
           id="g26"><path
             id="path28"
             style="fill:#ffffff;fill-opacity:1;fill-rule:evenodd;stroke:none"
             d="m 0,0 0,-178.494 c 0,-21.534 -4.045,-37.183 -12.107,-46.905 -8.059,-9.724 -21.184,-15.593 -36.891,-15.593 -15.708,0 -28.817,5.869 -36.876,15.593 -8.062,9.722 -12.123,25.371 -12.123,46.905 l 0,178.494 -81.997,0 0,-184.994 c 0,-39.87 10.416,-70.409 32.723,-91.663 22.307,-21.253 56.713,-32.333 98.273,-32.333 41.559,0 75.981,11.08 98.288,32.333 22.308,21.254 32.707,51.793 32.707,91.663 L 81.997,0 0,0 Z" /></g></g></g></g></svg>